<?xml version="1.0" encoding="UTF-8" ?>
<svg version="1.1" width="80" height="80" xmlns="http://www.w3.org/2000/svg" shape-rendering="crispEdges">
<rect x="0" y="0" width="80" height="20" fill="#39797E" />
<rect x="0" y="20" width="15" height="25" fill="#39797E" />
<rect x="15" y="20" width="10" height="5" fill="#2E2E2E" />
<rect x="25" y="20" width="35" height="5" fill="#39797E" />
<rect x="60" y="20" width="10" height="5" fill="#2E2E2E" />
<rect x="70" y="20" width="10" height="25" fill="#39797E" />
<rect x="15" y="25" width="5" height="35" fill="#2E2E2E" />
<rect x="20" y="25" width="5" height="5" fill="#E3DEDE" />
<rect x="25" y="25" width="5" height="5" fill="#2E2E2E" />
<rect x="30" y="25" width="25" height="5" fill="#39797E" />
<rect x="55" y="25" width="5" height="5" fill="#2E2E2E" />
<rect x="60" y="25" width="5" height="5" fill="#E3DEDE" />
<rect x="65" y="25" width="5" height="35" fill="#2E2E2E" />
<rect x="20" y="30" width="5" height="30" fill="#FFFFFF" />
<rect x="25" y="30" width="5" height="5" fill="#E3DEDE" />
<rect x="30" y="30" width="25" height="5" fill="#2E2E2E" />
<rect x="55" y="30" width="5" height="5" fill="#E3DEDE" />
<rect x="60" y="30" width="5" height="30" fill="#FFFFFF" />
<rect x="25" y="35" width="35" height="10" fill="#FFFFFF" />
<rect x="0" y="45" width="10" height="35" fill="#39797E" />
<rect x="10" y="45" width="5" height="5" fill="#2E2E2E" />
<rect x="25" y="45" width="5" height="20" fill="#FFFFFF" />
<rect x="30" y="45" width="5" height="10" fill="#2E2E2E" />
<rect x="35" y="45" width="15" height="10" fill="#FFFFFF" />
<rect x="50" y="45" width="5" height="10" fill="#2E2E2E" />
<rect x="55" y="45" width="5" height="20" fill="#FFFFFF" />
<rect x="70" y="45" width="5" height="5" fill="#2E2E2E" />
<rect x="75" y="45" width="5" height="35" fill="#39797E" />
<rect x="10" y="50" width="5" height="5" fill="#39797E" />
<rect x="70" y="50" width="5" height="5" fill="#39797E" />
<rect x="10" y="55" width="5" height="5" fill="#2E2E2E" />
<rect x="30" y="55" width="10" height="15" fill="#FFFFFF" />
<rect x="40" y="55" width="5" height="5" fill="#FB8E93" />
<rect x="45" y="55" width="10" height="15" fill="#FFFFFF" />
<rect x="70" y="55" width="5" height="5" fill="#2E2E2E" />
<rect x="10" y="60" width="10" height="10" fill="#39797E" />
<rect x="20" y="60" width="5" height="10" fill="#2E2E2E" />
<rect x="40" y="60" width="5" height="10" fill="#FFFFFF" />
<rect x="60" y="60" width="5" height="10" fill="#2E2E2E" />
<rect x="65" y="60" width="10" height="10" fill="#39797E" />
<rect x="25" y="65" width="5" height="5" fill="#2E2E2E" />
<rect x="55" y="65" width="5" height="5" fill="#2E2E2E" />
<rect x="10" y="70" width="5" height="5" fill="#39797E" />
<rect x="15" y="70" width="5" height="5" fill="#2E2E2E" />
<rect x="20" y="70" width="5" height="10" fill="#6A9CE9" />
<rect x="25" y="70" width="5" height="10" fill="#7BAFFB" />
<rect x="30" y="70" width="25" height="5" fill="#2E2E2E" />
<rect x="55" y="70" width="5" height="10" fill="#7BAFFB" />
<rect x="60" y="70" width="5" height="10" fill="#6A9CE9" />
<rect x="65" y="70" width="5" height="5" fill="#2E2E2E" />
<rect x="70" y="70" width="5" height="5" fill="#39797E" />
<rect x="10" y="75" width="5" height="5" fill="#2E2E2E" />
<rect x="15" y="75" width="5" height="5" fill="#6A9CE9" />
<rect x="30" y="75" width="25" height="5" fill="#7BAFFB" />
<rect x="65" y="75" width="5" height="5" fill="#6A9CE9" />
<rect x="70" y="75" width="5" height="5" fill="#2E2E2E" />
</svg>